<svg id="Capa_1" data-name="Capa 1" xmlns="http://www.w3.org/2000/svg" xmlns:xlink="http://www.w3.org/1999/xlink" viewBox="0 0 450.26 117.17"><defs><style>.cls-1{fill:url(#Degradado_sin_nombre_119);}.cls-2{fill:#e60c5d;}.cls-3{fill:#a90644;}</style><linearGradient id="Degradado_sin_nombre_119" x1="29.74" y1="123.59" x2="126.67" y2="123.59" gradientUnits="userSpaceOnUse"><stop offset="0.11" stop-color="#ed1d3b"/><stop offset="0.32" stop-color="#f25646" stop-opacity="0.95"/><stop offset="0.64" stop-color="#f9a855" stop-opacity="0.87"/><stop offset="0.88" stop-color="#fddb5e" stop-opacity="0.82"/><stop offset="1" stop-color="#ffef62" stop-opacity="0.8"/></linearGradient></defs><title>logov3</title><path class="cls-1" d="M126.6,132.8a69.58,69.58,0,0,1-5.1,21.34c-5.93,14.11-16,23.7-31.38,26.5-14.42,2.63-28.6,2.67-41.4-6.35-11.53-8.13-16.12-20.19-18.9-33.16-.62-2.86,2.45-1.58,3.74-1.24,5,1.32,4.82,1.44,4.19-3.59-1.82-14.3,1-26.94,13-36.44,4.35-3.44,5-8.82,5.36-13.88.24-3.66,1.24-3.42,3.93-2.07,7.22,3.61,7.32,3.55,13-2.21C77.62,77.11,81.35,72,82.5,65A77.19,77.19,0,0,1,99.24,81.3,125.59,125.59,0,0,1,116.53,112c1.91,4.76,3.51.61,5.23.06s1.78-4.88,4.91-2.11a1.06,1.06,0,0,0-.24.59v20.56Zm-78.39-4.62c-1.51,10.89-.51,21,4,30.07,5.12,10.41,14.6,14.24,26.15,14.25,15.32,0,26.27-9.71,27.37-25.47l-4.11.73c0-2.15-.11-4.06,0-5.95.39-5.83-.71-11.52-4.91-15.47-4-3.74-6.29-7.82-6.69-13.17-6.84,2.75-7.36,2.6-12-3.33a19.71,19.71,0,0,1-1.83-2.79c-2.15-4-4-4.28-7.09-.71a85.34,85.34,0,0,0-13.42,20.52C53.19,132.37,53.14,132.35,48.21,128.18Z" transform="translate(-29.74 -65)"/><path class="cls-2" d="M166.87,74.41h-7.82v40h-6.83v-40h-7.81V68.56h22.46Z" transform="translate(-29.74 -65)"/><path class="cls-2" d="M202,110.22a4.22,4.22,0,0,1-4.22,4.22h-15q-4.25,0-4.25-4.19V68.56h6.83v40h8.79v-40H202Z" transform="translate(-29.74 -65)"/><path class="cls-2" d="M270.8,68.56l-6.68,45.88h-6.68c-.39-2.9-4.64-27.91-4.31-30.16.4,2.16-4,27.4-4.29,30.16h-6.7l-6.68-45.88h6.91c.31,2.79,4,29.33,3.76,31.36-.31-2.07,3.89-28.64,4.2-31.36h5.6c.35,2.79,4.47,29.33,4.2,31.36-.28-2.06,3.48-28.64,3.76-31.36Z" transform="translate(-29.74 -65)"/><path class="cls-2" d="M302.57,114.44H284V68.56h18.55v5.85h-12.7V88.08h10.74v5.86H289.87v14.64h12.7Z" transform="translate(-29.74 -65)"/><path class="cls-2" d="M338.69,110.18c0,2.82-4.17,4.26-4.17,4.26H316.23V68.56H334.4s4.09,1.07,3.31,3.9v11.9c.35,3.91-.26,3.22-4.28,5.93,4.15,2.78,4.84,2.17,5.26,6.17ZM331.85,85.7V74.41h-8.78V88.08h5.4Zm0,22.88V95.24L328.48,93h-5.41v15.62Z" transform="translate(-29.74 -65)"/><path class="cls-2" d="M169.6,176.64H150.08V130.75h18.54v5.86H156.91l1,13.67h9.76v5.85h-9.76v14.65H169.6Z" transform="translate(-29.74 -65)"/><path class="cls-2" d="M206.7,176.64h-6.06l-11.08-28.88c.8.76.33,27.1.44,28.88h-6.73V130.75h6.06L200.4,159c-.79-.9-.32-26.44-.44-28.29h6.74Z" transform="translate(-29.74 -65)"/><path class="cls-2" d="M256.43,173.14c0,2.81-1.39,4.21-4.19,4.21H238q-4,0-4-4.23V135.27q0-4.26,4-4.26c17.55,1.12,19.07-5.53,18.36,15.1H249.6v-8.79h-8.79v34.17h8.79v-9.76h6.83Z" transform="translate(-29.74 -65)"/><path class="cls-2" d="M293.91,177.35H287.2l-1.38-8.79h-8.64l-1.38,8.79h-6.68c-.05-.07,8.84-45.8,8.84-45.88h7.17Zm-9.07-14.64-3.35-20.84-3.38,20.84Z" transform="translate(-29.74 -65)"/><path class="cls-2" d="M324.77,177.35H306.22V131.47H314v40h10.74Z" transform="translate(-29.74 -65)"/><path class="cls-2" d="M344.3,177.35h-6.84V131.47h6.84Z" transform="translate(-29.74 -65)"/><path class="cls-2" d="M377.49,177.35H358.94V131.47h18.55v5.85H365.78V151h10.74v5.86H365.78v14.64h11.71Z" transform="translate(-29.74 -65)"/><path class="cls-2" d="M414.59,177.35h-6.06l-11.08-28.88c.8.77.33,27.1.45,28.88h-6.74V131.47h6.06l11.08,28.29c-.8-.9-.33-26.44-.45-28.29h6.74Z" transform="translate(-29.74 -65)"/><path class="cls-2" d="M449.74,137.32h-7.81v40h-6.84v-40h-7.81v-5.85h22.46Z" transform="translate(-29.74 -65)"/><path class="cls-2" d="M480,177.35H461.45V131.47H480v5.85H468.28V151H479v5.86H468.28v14.64H480Z" transform="translate(-29.74 -65)"/><path class="cls-3" d="M391.16,131.47" transform="translate(-29.74 -65)"/></svg>